<svg width="189" height="35" viewBox="0 0 189 35" fill="none" xmlns="http://www.w3.org/2000/svg">
<path fill-rule="evenodd" clip-rule="evenodd" d="M0.896973 23.1607L29.397 0.983032V8.43272C29.397 8.86358 29.1771 9.27676 28.7857 9.58139L6.11596 27.2221L0.896973 23.1607ZM9.61696 29.9463L29.397 14.5541V22.0039C29.397 22.4347 29.1771 22.8478 28.7857 23.1525L20.0552 29.9463L21.7732 31.2833L26.9923 35.3447H16.5542L14.836 34.0076L9.61696 29.9463ZM189.605 23.1241L194.672 25.9255C192.292 28.3702 188.581 29.9427 184.411 29.9427C177.23 29.9427 171.408 25.2792 171.408 19.5264C171.408 13.7737 177.23 9.11024 184.411 9.11024C188.581 9.11024 192.292 10.6827 194.672 13.1274L189.605 15.9289C188.357 14.714 186.493 13.9404 184.411 13.9404C180.664 13.9404 177.615 16.4462 177.615 19.5264C177.615 22.6067 180.664 25.1126 184.411 25.1126C186.493 25.1126 188.357 24.339 189.605 23.1241ZM52.2379 17.5473H62.7209L60.7183 22.1305H52.2379V29.9426H46.1188V9.11033H66.4073L64.4047 13.6935H52.2379V17.5473ZM138.806 9.11033H158.693V13.6935H151.809V29.9426H145.69V13.6935H138.806V9.11033ZM161.336 29.9427H167.599V9.11033H161.336V29.9427ZM124.61 22.1119L127.708 14.5565L130.806 22.1119H124.61ZM123.807 9.11033L114.704 29.9426H121.397L122.725 26.6952H132.69L134.018 29.9426H140.711L131.609 9.11033H123.807ZM106.139 9.11033H112.258V29.9426H107.668L97.342 18.6337V29.9426H91.2229V9.11033H95.8123L106.139 20.4193V9.11033ZM72.6749 22.1119L75.7729 14.5565L78.8708 22.1119H72.6749ZM71.872 9.11033L62.7697 29.9426H69.4625L70.7903 26.6952H80.7555L82.0833 29.9426H88.7761L79.6739 9.11033H71.872Z" fill="#0093A1"/>
</svg>
