<svg width="158" height="36" viewBox="0 0 158 36" fill="none" xmlns="http://www.w3.org/2000/svg">
<mask id="mask0_12_96" style="mask-type:alpha" maskUnits="userSpaceOnUse" x="0" y="0" width="158" height="36">
<path d="M0 0.946289H158V35.3079H0V0.946289Z" fill="white"/>
</mask>
<g mask="url(#mask0_12_96)">
<path fill-rule="evenodd" clip-rule="evenodd" d="M4.76709 24.1069L28.0054 1.9292V9.37888C28.0054 9.80975 27.8262 10.2229 27.507 10.5276L9.02255 28.1682L4.76709 24.1069ZM11.8772 30.8925L28.0054 15.5003V22.9501C28.0054 23.3808 27.8262 23.794 27.507 24.0986L20.3883 30.8925L21.7892 32.2295L26.0447 36.2908H17.5336L16.1327 34.9538L11.8772 30.8925ZM158.636 24.0702L162.767 26.8717C160.827 29.3164 157.801 30.8889 154.401 30.8889C148.545 30.8889 143.799 26.2254 143.799 20.4726C143.799 14.7199 148.545 10.0564 154.401 10.0564C157.801 10.0564 160.827 11.6288 162.767 14.0736L158.636 16.8751C157.618 15.6602 156.098 14.8865 154.401 14.8865C151.346 14.8865 148.86 17.3924 148.86 20.4726C148.86 23.5528 151.346 26.0588 154.401 26.0588C156.098 26.0588 157.618 25.2851 158.636 24.0702ZM46.6294 18.4935H55.1771L53.5442 23.0767H46.6294V30.8888H41.64V10.0565H58.1829L56.55 14.6396H46.6294V18.4935ZM117.215 10.0565H133.431V14.6396H127.818V30.8888H122.828V14.6396H117.215V10.0565ZM135.586 30.8889H140.692V10.0565H135.586V30.8889ZM105.64 23.0581L108.166 15.5027L110.692 23.0581H105.64ZM104.985 10.0565L97.5635 30.8888H103.021L104.103 27.6413H112.229L113.311 30.8888H118.769L111.347 10.0565H104.985ZM90.5789 10.0565H95.5683V30.8888H91.8263L83.4065 19.5799V30.8888H78.4171V10.0565H82.1591L90.5789 21.3654V10.0565ZM63.2934 23.0581L65.8194 15.5027L68.3454 23.0581H63.2934ZM62.6387 10.0565L55.2169 30.8888H60.674L61.7567 27.6413H69.8821L70.9648 30.8888H76.4219L69.0002 10.0565H62.6387Z" fill="#262C27"/>
</g>
</svg>
